<svg xmlns="http://www.w3.org/2000/svg" xmlns:xlink="http://www.w3.org/1999/xlink" version="1.1" x="0px" y="0px" viewBox="0 0 100 125" enable-background="new 0 0 100 100" xml:space="preserve"><g><path fill="white" d="M79.8,42.6c-3.1-0.9-6.5-0.8-9.6,0.2c-3.1,1-5.8,3.1-7.7,5.7c-0.4,0.6-0.8,1.2-1.1,1.8c-1.5-1.8-3.6-3.1-5.9-3.8   c-1.3-0.4-2.7-0.6-4.1-0.6c-1.4,0-2.8,0.2-4.2,0.5c-1,0.3-2,0.6-2.9,1.1c0.1-0.7,0-1.4-0.1-2.1c-0.1-0.7-0.3-1.5-0.4-2.2   c-0.1-0.6-0.3-1.2-0.5-1.7l4.8-5.5l9.8,4.9l0.4,0.2l0.5-0.1l0,0c2.3-0.5,4.6-1.1,6.9-1.8l1-0.3l0-1.1c0-1.1,0-2.2,0-3.2   c1.2-1.5,2.3-3.1,3.4-4.6l0.6-0.8l-0.5-0.8c-1.2-2-2.4-4.1-3.7-6c-0.3-0.5-0.7-1-1.1-1.5c-0.4-0.5-0.9-1.1-1.7-1.4   c-0.7-0.3-1.4-0.3-2-0.4c-0.6,0-1.2,0-1.8,0c-1.6-0.2-3.2-0.5-4.9-0.8l-0.1,0l-0.1,0.1C53,18.9,51,19.5,49,20.1   c-2,0.6-3.9,1.3-5.8,1.9l-0.1,0l-0.1,0.1c-1.4,0.8-2.7,1.8-3.7,3.1l-2.9,3.5c-1.9,2.3-3.9,4.6-5.8,6.8l-5.9,6.8   c-0.5,0.5-1,1.2-1.5,1.8c-0.5,0.6-1,1.3-1.4,2c-0.9,1.3-1.7,2.8-2.4,4.3c-1.4,3-2.2,6.2-2.6,9.4c-0.2,1.6-0.2,3.3-0.2,4.9l0.1,1.2   c0,0.5,0.1,1.1,0.3,1.7c0.3,1.1,0.9,2.2,1.6,3c1.5,1.8,3.7,2.8,5.9,2.8c0.6,0,1.1,0,1.6-0.1c0.5-0.1,0.8-0.2,1.1-0.3   c0.3-0.1,0.5-0.1,0.8-0.2c0,0.1,0.1,0.1,0.1,0.2c0.5,0.6,1,1.2,1.6,1.8c1.1,1.1,2.4,2.2,3.7,3.1c2.7,1.9,6.1,3,9.5,3.1   c3.4,0.1,6.9-0.8,9.7-2.6c0.5-0.3,1-0.7,1.5-1.1l10.4,12.3L57,74.2c0.8-1.2,1.4-2.4,1.8-3.8c-1.4,0.8-2.7,1.6-4,2.2   c-1.3,0.7-2.6,1.2-3.9,1.7c-1.3,0.5-2.6,0.9-3.9,1.1c-1.3,0.3-2.6,0.5-4,0.6c-2.7,0.2-5.4,0-8.1-0.9c-1.4-0.4-2.7-1-4-1.8   c-0.5-0.3-1-0.6-1.5-1c0,0,0,0,0,0c2.9-0.8,5.8-1.8,8.6-3.2c-3.1-0.6-6.1-0.8-9.2-0.8c-0.8,0-1.5,0-2.3,0c-0.4,0-0.8,0-1.1,0   c-0.2,0-0.4-0.1-0.6-0.1c-0.8-0.2-1.4-0.7-1.8-1.3c-0.2-0.3-0.3-0.6-0.4-1c0-0.2,0-0.3-0.1-0.5l0-1c0-1.3,0-2.7,0.2-4   c0.3-2.7,0.9-5.3,1.8-7.9c0.5-1.3,1-2.5,1.6-3.7c0.3-0.6,0.7-1.2,1-1.8c0.4-0.6,0.7-1.2,1.2-1.8l4.9-7.5c1.7-2.5,3.3-5,5-7.5   l2.5-3.7c0.8-1.1,1.8-2,2.9-2.7c1.9-0.7,3.7-1.4,5.6-2.2c1.9-0.7,3.7-1.5,5.6-2.3c1.6,0.2,3.2,0.5,4.7,0.7l0.1,0   c1.1,0.1,2.5,0.2,3.1,0.7c0.6,0.4,1,1.5,1.5,2.6c0.8,1.9,1.8,3.7,2.7,5.5c-1.1,1.4-2.2,2.8-3.2,4.3l-0.3,0.4l0,0.2   c-0.6,0-1.2-0.1-1.8-0.1c-0.2,0-0.4,0-0.6,0c0.4-0.5,0.7-1,1-1.4c0.8-1.2,1.5-2.3,2.1-3.6l0.2-0.4L64.6,28l-2.8-3.9l1.6,4   c-0.9,1-1.6,2-2.4,3.1c-0.4,0.6-0.8,1.2-1.1,1.8c-0.2,0.3-0.3,0.5-0.5,0.8c-0.1,0-0.2,0-0.3,0.1l-1.7-0.9c0.1-0.1,0.2-0.2,0.3-0.4   c0.4-0.4,0.7-0.9,1-1.4c0.7-1,1.3-1.9,1.8-3l0.2-0.4l-0.1-0.2L58,24.1l1.4,3.7c-0.8,0.8-1.4,1.6-2,2.5c-0.3,0.5-0.6,1-0.9,1.5   c-0.1,0.2-0.2,0.4-0.3,0.6l-1.7-0.9c0,0-0.1,0-0.1-0.1l0.3-0.4c0.2-0.3,0.5-0.7,0.7-1c0.4-0.7,0.8-1.5,1-2.3l0.1-0.4l-0.1-0.1   l-2.3-2.9l-0.1,0l1.3,3c-0.5,0.5-1,1.1-1.4,1.8c-0.2,0.4-0.4,0.7-0.6,1.1l-0.3,0.6c-1.2-0.6-2.5-1.2-3.7-1.8L49,29.1   c1.6,1.2,3.1,2.3,4.7,3.4l2.4,1.7l2.4,1.7l0.2,0.2l0.4,0c1.1-0.1,2.1-0.3,3.1-0.6c0.5-0.2,1-0.3,1.5-0.5c0,0.6,0,1.3,0,1.9   c-1.8,0.6-3.5,1.2-5.3,1.8L48.4,33l0,0l-1.2-0.6l-0.6,1l-8.4,13.8l3.8-4.3c0,0.1,0,0.3,0,0.4c-0.1,0.8-0.1,1.5-0.2,2.3   c0,0.8,0,1.5,0.2,2.3c0.1,0.3,0.2,0.6,0.3,0.9c-0.8,0.6-1.6,1.2-2.3,2c-1.9,2-3.2,4.6-3.4,7.2c1.8-2,3.5-3.6,5.4-4.9   c1-0.6,2-1.2,3-1.6c1-0.5,2.1-0.9,3.1-1.1c1.1-0.3,2.2-0.5,3.3-0.6c1.1-0.1,2.2-0.1,3.4-0.1c2,0.1,4.1,0.6,6.2,1.2   c-0.3,0.6-0.6,1.3-0.8,1.9c-0.4,1.5-0.6,3.1-0.5,4.6c0.7-1.3,1.4-2.6,2.2-3.7c0.8-1.1,1.7-2.1,2.7-3c2-1.8,4.2-3.1,6.6-4   c2.4-0.8,5-1.2,7.7-0.9c2.7,0.2,5.3,1,8.1,2.3C85.6,45.4,82.9,43.5,79.8,42.6z"/><path fill="white" d="M53.4,65.4c-1.2,0.5-2.6,0.8-3.9,1c-2.7,0.4-5.5,0.3-8.2-0.5c2.6,1.1,5.4,1.5,8.3,1.5c1.4,0,2.9-0.2,4.3-0.6   c1.4-0.4,2.9-0.9,4.1-2.1l-1.5-1.4C55.8,64.3,54.6,64.9,53.4,65.4z"/><path fill="white" d="M65.2,60.8l-0.8,3.9c2.7,0.2,5.4,1.3,7.8,3c2.4,1.7,4.4,4.1,6,6.7c-1-2.9-2.5-5.8-4.7-8.2C71.4,63.8,68.6,61.9,65.2,60.8z"/></g></svg>