<svg id="Capa_1" enable-background="new 0 0 511.165 511.165" height="512" viewBox="0 0 511.165 511.165" width="512" xmlns="http://www.w3.org/2000/svg"><g><path fill="white" d="m255.583 63.198c-.001 0-.001 0 0 0-64.41 0-124.84 28.69-170.16 80.785-4.911 5.645-4.911 14.045 0 19.69l81.733 93.95c2.849 3.275 6.977 5.155 11.317 5.155h154.221c4.341 0 8.468-1.88 11.317-5.155l81.733-93.95c4.911-5.645 4.911-14.046 0-19.691-45.321-52.094-105.753-80.783-170.161-80.784zm-8.814 169.58 8.813-19.09 8.813 19.09zm79.092 0h-28.422l-28.238-61.163c-2.452-5.311-7.768-8.712-13.619-8.712-5.85 0-11.167 3.401-13.619 8.712l-28.237 61.163h-28.422l-68.443-78.673c8.551-8.78 17.624-16.666 27.13-23.63l12.914 15.491c2.967 3.559 7.232 5.395 11.529 5.395 3.387 0 6.793-1.141 9.597-3.479 6.363-5.305 7.221-14.763 1.917-21.126l-10.253-12.299c22.214-11.593 46.135-18.618 70.887-20.641v18.474c0 8.284 6.716 15 15 15s15-6.716 15-15v-18.474c24.752 2.023 48.673 9.048 70.887 20.641l-10.253 12.299c-5.305 6.363-4.446 15.822 1.916 21.126 2.806 2.338 6.211 3.479 9.598 3.479 4.297 0 8.562-1.837 11.529-5.395l12.914-15.491c9.505 6.964 18.579 14.85 27.129 23.63z"/><path fill="white" d="m465.953 36.244c-20.765-23.034-50.459-36.244-81.47-36.244h-257.801c-31.01 0-60.704 13.21-81.468 36.243s-30.834 53.934-27.63 84.779l30.322 291.795c5.826 56.067 52.728 98.348 109.098 98.348h197.158c56.369 0 103.271-42.28 109.098-98.348l30.321-291.794c3.205-30.845-6.866-61.746-27.628-84.779zm-2.212 81.677-30.321 291.795c-4.232 40.732-38.307 71.449-79.258 71.449h-83.579v-89.969c0-8.284-6.716-15-15-15s-15 6.716-15 15v89.969h-83.579c-40.952 0-75.026-30.716-79.259-71.449l-30.321-291.795c-2.329-22.409 4.987-44.857 20.072-61.591 15.085-16.733 36.657-26.33 59.186-26.33h257.801c22.529 0 44.102 9.597 59.187 26.331 15.085 16.733 22.4 39.182 20.071 61.59z"/></g></svg>